<svg width="40" height="40" viewBox="0 0 40 40" fill="none" xmlns="http://www.w3.org/2000/svg">
<path d="M35.3499 26.4835C34.2896 28.9909 32.6312 31.2005 30.5197 32.919C28.4081 34.6374 25.9078 35.8125 23.2373 36.3414C20.5667 36.8704 17.8072 36.737 15.2001 35.9531C12.593 35.1692 10.2176 33.7586 8.28156 31.8446C6.34555 29.9305 4.90788 27.5714 4.09425 24.9734C3.28062 22.3754 3.11579 19.6176 3.61419 16.9412C4.11258 14.2648 5.25902 11.7512 6.95327 9.62018C8.64752 7.48918 10.838 5.80566 13.3332 4.7168" stroke="black" stroke-width="3" stroke-linecap="round" stroke-linejoin="round"/>
<path d="M36.6667 20.0002C36.6667 17.8115 36.2356 15.6442 35.398 13.6221C34.5604 11.6 33.3328 9.76269 31.7851 8.21505C30.2375 6.66741 28.4002 5.43975 26.3781 4.60217C24.356 3.76459 22.1887 3.3335 20 3.3335V20.0002H36.6667Z" stroke="black" stroke-width="3" stroke-linecap="round" stroke-linejoin="round"/>
</svg>
