<svg width="145" height="155" viewBox="0 0 145 155" fill="none" xmlns="http://www.w3.org/2000/svg">
<path fill-rule="evenodd" clip-rule="evenodd" d="M94.108 0.172694C94.8997 -0.17943 95.828 0.0182623 96.4076 0.662377L100.671 5.40125C101.251 6.04536 101.35 6.98939 100.916 7.7396L97.8119 13.1118L132.005 52.2956L137.621 49.7973C138.413 49.4452 139.341 49.6429 139.921 50.287L144.185 55.0259C144.764 55.67 144.863 56.614 144.43 57.3642L141.24 62.8837C140.807 63.6339 139.939 64.0196 139.092 63.8392L132.857 62.5115L132.849 62.5096L100.613 115.435L103.905 119.094C104.484 119.738 104.583 120.682 104.15 121.433L100.96 126.952C100.527 127.702 99.6597 128.088 98.8122 127.908L92.5774 126.58C91.7299 126.399 91.0951 125.694 91.0048 124.832L90.6566 121.507L31.7681 129.298L29.3429 133.495C28.9094 134.245 28.0421 134.631 27.1947 134.451L25.264 134.04L22.9845 141.137L26.7067 145.274C27.2863 145.918 27.3851 146.862 26.9516 147.612L23.7623 153.132C23.3288 153.882 22.4615 154.268 21.614 154.087L15.3792 152.76C14.5317 152.579 13.8969 151.874 13.8066 151.012L13.1426 144.672C13.0524 143.81 13.5273 142.988 14.3189 142.636L20.1434 140.046C20.5095 139.883 20.9048 139.837 21.2814 139.899L23.2978 133.621L20.9598 133.123C20.1124 132.943 19.4775 132.237 19.3873 131.375L18.7233 125.035C18.633 124.174 19.1079 123.352 19.8996 123L25.7241 120.409C26.5158 120.057 27.4442 120.254 28.0237 120.899L32.2874 125.637C32.6658 126.058 32.8393 126.606 32.7934 127.145L90.4482 119.517L90.3408 118.492C90.2506 117.63 90.7255 116.808 91.5172 116.456L94.6274 115.073L92.5556 13.5708L89.3437 12.8868L89.3104 12.8795L58.1127 35.6781L59.247 36.9388C59.8265 37.583 59.9254 38.527 59.4919 39.2772L56.3025 44.7966C55.869 45.5468 55.0017 45.9326 54.1543 45.7521L47.9194 44.4244C47.072 44.244 46.4371 43.5384 46.3469 42.6766L46.1098 40.4132L19.5139 44.2474L19.4586 48.2866C19.4468 49.153 18.8784 49.9132 18.0508 50.1696L11.9618 52.0564C11.1341 52.3129 10.2355 52.0072 9.73584 51.2993L6.05981 46.0914C5.56015 45.3835 5.57314 44.4344 6.09197 43.7404L9.90908 38.635C10.0474 38.45 10.2132 38.2944 10.3977 38.1709L8.24263 32.7469L2.24749 31.4702C1.40004 31.2898 0.765168 30.5841 0.674919 29.7224L0.0109389 23.3824C-0.0793104 22.5207 0.39559 21.6988 1.18726 21.3467L7.01176 18.7561C7.80343 18.4039 8.73181 18.6016 9.31134 19.2458L13.5751 23.9846C14.1546 24.6287 14.2535 25.5728 13.82 26.323L10.6306 31.8424C10.5221 32.0302 10.3864 32.1951 10.2307 32.334L12.505 38.0582L18.19 39.9917C19.0103 40.2707 19.5577 41.0462 19.5458 41.9125L19.5416 42.2228L45.9013 38.4226L45.6829 36.3366C45.5926 35.4749 46.0675 34.6531 46.8592 34.3009L52.6837 31.7103C53.4754 31.3582 54.4037 31.5559 54.9833 32.2L56.768 34.1836L87.8368 11.4792C87.8055 11.3693 87.7833 11.2556 87.7711 11.139L87.1072 4.79905C87.0169 3.93731 87.4918 3.11546 88.2835 2.76334L94.108 0.172694ZM99.1654 113.967L131.354 61.1181C131.321 61.0038 131.297 60.8853 131.285 60.7637L130.621 54.4237C130.598 54.208 130.611 53.9948 130.655 53.7909L96.1527 14.2523C95.9638 14.2672 95.7707 14.2554 95.5786 14.2145L94.5647 13.9986L96.6098 114.191L97.3417 113.866C97.9415 113.599 98.6198 113.648 99.1654 113.967Z" fill="#FCA808"/>
<mask id="path-2-inside-1_4_242" fill="white">
<path fill-rule="evenodd" clip-rule="evenodd" d="M103.191 121.002C105.953 121.002 108.191 118.763 108.191 116.002C108.191 113.24 105.953 111.002 103.191 111.002C100.43 111.002 98.1913 113.24 98.1913 116.002C98.1913 118.763 100.43 121.002 103.191 121.002ZM103.191 118.002C104.296 118.002 105.191 117.106 105.191 116.002C105.191 114.897 104.296 114.002 103.191 114.002C102.087 114.002 101.191 114.897 101.191 116.002C101.191 117.106 102.087 118.002 103.191 118.002Z"/>
</mask>
<path fill-rule="evenodd" clip-rule="evenodd" d="M103.191 121.002C105.953 121.002 108.191 118.763 108.191 116.002C108.191 113.24 105.953 111.002 103.191 111.002C100.43 111.002 98.1913 113.24 98.1913 116.002C98.1913 118.763 100.43 121.002 103.191 121.002ZM103.191 118.002C104.296 118.002 105.191 117.106 105.191 116.002C105.191 114.897 104.296 114.002 103.191 114.002C102.087 114.002 101.191 114.897 101.191 116.002C101.191 117.106 102.087 118.002 103.191 118.002Z" fill="url(#paint0_linear_4_242)"/>
<path d="M107.491 116.002C107.491 118.377 105.566 120.302 103.191 120.302V121.702C106.339 121.702 108.891 119.15 108.891 116.002H107.491ZM103.191 111.702C105.566 111.702 107.491 113.627 107.491 116.002H108.891C108.891 112.854 106.339 110.302 103.191 110.302V111.702ZM98.8913 116.002C98.8913 113.627 100.816 111.702 103.191 111.702V110.302C100.043 110.302 97.4913 112.854 97.4913 116.002H98.8913ZM103.191 120.302C100.816 120.302 98.8913 118.377 98.8913 116.002H97.4913C97.4913 119.15 100.043 121.702 103.191 121.702V120.302ZM104.491 116.002C104.491 116.72 103.909 117.302 103.191 117.302V118.702C104.682 118.702 105.891 117.493 105.891 116.002H104.491ZM103.191 114.702C103.909 114.702 104.491 115.284 104.491 116.002H105.891C105.891 114.511 104.682 113.302 103.191 113.302V114.702ZM101.891 116.002C101.891 115.284 102.473 114.702 103.191 114.702V113.302C101.7 113.302 100.491 114.511 100.491 116.002H101.891ZM103.191 117.302C102.473 117.302 101.891 116.72 101.891 116.002H100.491C100.491 117.493 101.7 118.702 103.191 118.702V117.302Z" fill="black" mask="url(#path-2-inside-1_4_242)"/>
<mask id="path-4-inside-2_4_242" fill="white">
<path fill-rule="evenodd" clip-rule="evenodd" d="M51.1913 92.0173C51.1913 79.3062 61.041 69.0018 73.1913 69.0018C85.3415 69.0018 95.1913 79.3062 95.1913 92.0173V108.848L96.1637 116.46C96.2018 116.758 96.1947 117.052 96.1477 117.334L96.1637 117.46C96.3737 119.103 95.2115 120.606 93.5681 120.816L67.8738 124.098C66.7619 124.24 65.6887 124.005 64.7825 123.493L50.3388 125.338C47.5997 125.688 45.0955 123.751 44.7455 121.012L44.1046 115.995C43.7546 113.256 45.6915 110.752 48.4307 110.402L51.1913 110.049V92.0173Z"/>
</mask>
<path fill-rule="evenodd" clip-rule="evenodd" d="M51.1913 92.0173C51.1913 79.3062 61.041 69.0018 73.1913 69.0018C85.3415 69.0018 95.1913 79.3062 95.1913 92.0173V108.848L96.1637 116.46C96.2018 116.758 96.1947 117.052 96.1477 117.334L96.1637 117.46C96.3737 119.103 95.2115 120.606 93.5681 120.816L67.8738 124.098C66.7619 124.24 65.6887 124.005 64.7825 123.493L50.3388 125.338C47.5997 125.688 45.0955 123.751 44.7455 121.012L44.1046 115.995C43.7546 113.256 45.6915 110.752 48.4307 110.402L51.1913 110.049V92.0173Z" fill="url(#paint1_linear_4_242)"/>
<path d="M95.1913 108.848H94.1913V108.912L94.1993 108.975L95.1913 108.848ZM96.1637 116.46L95.1717 116.587L96.1637 116.46ZM96.1477 117.334L95.1613 117.17L95.1371 117.315L95.1557 117.461L96.1477 117.334ZM96.1637 117.46L95.1718 117.586V117.586L96.1637 117.46ZM93.5681 120.816L93.6948 121.808H93.6948L93.5681 120.816ZM67.8738 124.098L67.7471 123.106L67.8738 124.098ZM64.7825 123.493L65.2747 122.623L64.9855 122.459L64.6558 122.501L64.7825 123.493ZM50.3388 125.338L50.4655 126.33L50.3388 125.338ZM44.7455 121.012L43.7536 121.139L44.7455 121.012ZM44.1046 115.995L43.1126 116.122L44.1046 115.995ZM48.4307 110.402L48.5574 111.394L48.4307 110.402ZM51.1913 110.049L51.318 111.041L52.1913 110.929V110.049H51.1913ZM73.1913 68.0018C60.4467 68.0018 50.1913 78.7969 50.1913 92.0173H52.1913C52.1913 79.8155 61.6354 70.0018 73.1913 70.0018V68.0018ZM96.1913 92.0173C96.1913 78.7969 85.9359 68.0018 73.1913 68.0018V70.0018C84.7472 70.0018 94.1913 79.8155 94.1913 92.0173H96.1913ZM96.1913 108.848V92.0173H94.1913V108.848H96.1913ZM97.1556 116.333L96.1832 108.721L94.1993 108.975L95.1717 116.587L97.1556 116.333ZM97.1341 117.499C97.1969 117.121 97.2062 116.729 97.1556 116.333L95.1717 116.587C95.1974 116.787 95.1924 116.983 95.1613 117.17L97.1341 117.499ZM95.1557 117.461L95.1718 117.586L97.1556 117.333L97.1396 117.208L95.1557 117.461ZM95.1718 117.586C95.3117 118.682 94.537 119.684 93.4413 119.824L93.6948 121.808C95.8861 121.528 97.4356 119.524 97.1556 117.333L95.1718 117.586ZM93.4413 119.824L67.7471 123.106L68.0005 125.09L93.6948 121.808L93.4413 119.824ZM67.7471 123.106C66.8564 123.22 65.9995 123.032 65.2747 122.623L64.2904 124.364C65.3778 124.978 66.6674 125.26 68.0005 125.09L67.7471 123.106ZM50.4655 126.33L64.9093 124.485L64.6558 122.501L50.2121 124.346L50.4655 126.33ZM43.7536 121.139C44.1735 124.426 47.1785 126.75 50.4655 126.33L50.2121 124.346C48.0208 124.626 46.0174 123.077 45.7375 120.886L43.7536 121.139ZM43.1126 116.122L43.7536 121.139L45.7375 120.886L45.0965 115.868L43.1126 116.122ZM48.3039 109.41C45.0169 109.83 42.6927 112.835 43.1126 116.122L45.0965 115.868C44.8166 113.677 46.3661 111.674 48.5574 111.394L48.3039 109.41ZM51.0646 109.057L48.3039 109.41L48.5574 111.394L51.318 111.041L51.0646 109.057ZM50.1913 92.0173V110.049H52.1913V92.0173H50.1913Z" fill="black" mask="url(#path-4-inside-2_4_242)"/>
<circle cx="71.9375" cy="82.8827" r="7.9" transform="rotate(180 71.9375 82.8827)" fill="white" stroke="black" stroke-width="0.2"/>
<circle cx="71.999" cy="82.6379" r="6.46154" transform="rotate(180 71.999 82.6379)" fill="url(#paint2_linear_4_242)"/>
<ellipse cx="68.6144" cy="79.8686" rx="1.23077" ry="1.23077" transform="rotate(180 68.6144 79.8686)" fill="white"/>
<path fill-rule="evenodd" clip-rule="evenodd" d="M69.1917 109.119L66.9049 109.441C64.1703 109.825 62.1442 112.367 62.3794 115.118L62.8066 120.116C63.0418 122.867 65.4492 124.786 68.1838 124.402L93.3305 120.868C94.4735 120.708 95.4102 119.919 95.8256 118.897L94.6152 119.067C94.2871 119.491 93.8031 119.793 93.2454 119.872L68.0986 123.405C65.911 123.713 63.985 122.178 63.7968 119.976L63.3697 114.979C63.1815 112.778 64.8024 110.744 66.9901 110.437L69.2769 110.116L69.1917 109.119Z" fill="black"/>
<defs>
<linearGradient id="paint0_linear_4_242" x1="105.9" y1="98.2935" x2="108.779" y2="121.242" gradientUnits="userSpaceOnUse">
<stop stop-color="#8999D1"/>
<stop offset="1" stop-color="#1434A5"/>
</linearGradient>
<linearGradient id="paint1_linear_4_242" x1="58.9375" y1="74.8827" x2="95.9375" y2="128.883" gradientUnits="userSpaceOnUse">
<stop stop-color="#5570D1"/>
<stop offset="1" stop-color="#233B8D"/>
</linearGradient>
<linearGradient id="paint2_linear_4_242" x1="69.7374" y1="76.1763" x2="75.2297" y2="86.8379" gradientUnits="userSpaceOnUse">
<stop stop-color="#5374E6"/>
<stop offset="1" stop-color="#172D7A"/>
</linearGradient>
</defs>
</svg>
