<svg width="40" height="40" viewBox="0 0 40 40" fill="none" xmlns="http://www.w3.org/2000/svg">
<g clip-path="url(#clip0_206_299)">
<path d="M20 25C22.7614 25 25 22.7614 25 20C25 17.2386 22.7614 15 20 15C17.2386 15 15 17.2386 15 20C15 22.7614 17.2386 25 20 25Z" stroke="black" stroke-width="3" stroke-linecap="round" stroke-linejoin="round"/>
<path d="M32.3334 24.9998C32.1116 25.5025 32.0454 26.0602 32.1434 26.6008C32.2414 27.1415 32.4992 27.6404 32.8834 28.0332L32.9834 28.1332C33.2933 28.4427 33.5392 28.8104 33.7069 29.215C33.8747 29.6197 33.961 30.0534 33.961 30.4915C33.961 30.9296 33.8747 31.3633 33.7069 31.768C33.5392 32.1726 33.2933 32.5403 32.9834 32.8498C32.6738 33.1598 32.3062 33.4056 31.9015 33.5734C31.4969 33.7411 31.0631 33.8275 30.6251 33.8275C30.187 33.8275 29.7533 33.7411 29.3486 33.5734C28.944 33.4056 28.5763 33.1598 28.2667 32.8498L28.1667 32.7498C27.7739 32.3656 27.2751 32.1079 26.7344 32.0098C26.1937 31.9118 25.6361 31.978 25.1334 32.1998C24.6405 32.4111 24.2201 32.7619 23.9239 33.2091C23.6278 33.6562 23.4689 34.1802 23.4667 34.7165V34.9998C23.4667 35.8839 23.1156 36.7317 22.4904 37.3569C21.8653 37.982 21.0175 38.3332 20.1334 38.3332C19.2494 38.3332 18.4015 37.982 17.7764 37.3569C17.1513 36.7317 16.8001 35.8839 16.8001 34.9998V34.8498C16.7872 34.2982 16.6086 33.7632 16.2876 33.3143C15.9666 32.8655 15.518 32.5236 15.0001 32.3332C14.4974 32.1113 13.9398 32.0451 13.3991 32.1432C12.8584 32.2412 12.3595 32.4989 11.9667 32.8832L11.8667 32.9832C11.5572 33.2931 11.1895 33.539 10.7849 33.7067C10.3802 33.8744 9.94647 33.9608 9.50841 33.9608C9.07036 33.9608 8.63661 33.8744 8.23195 33.7067C7.82729 33.539 7.45966 33.2931 7.15008 32.9832C6.84016 32.6736 6.5943 32.306 6.42655 31.9013C6.2588 31.4966 6.17246 31.0629 6.17246 30.6248C6.17246 30.1868 6.2588 29.753 6.42655 29.3484C6.5943 28.9437 6.84016 28.5761 7.15008 28.2665L7.25008 28.1665C7.63431 27.7737 7.89206 27.2748 7.99009 26.7341C8.08812 26.1935 8.02194 25.6359 7.80008 25.1332C7.58881 24.6402 7.23801 24.2198 6.79086 23.9237C6.34371 23.6276 5.81973 23.4686 5.28341 23.4665H5.00008C4.11603 23.4665 3.26818 23.1153 2.64306 22.4902C2.01794 21.8651 1.66675 21.0172 1.66675 20.1332C1.66675 19.2491 2.01794 18.4013 2.64306 17.7761C3.26818 17.151 4.11603 16.7998 5.00008 16.7998H5.15008C5.70174 16.7869 6.23676 16.6084 6.68558 16.2874C7.1344 15.9663 7.47627 15.5177 7.66675 14.9998C7.88861 14.4971 7.95479 13.9395 7.85675 13.3989C7.75872 12.8582 7.50098 12.3593 7.11675 11.9665L7.01675 11.8665C6.70683 11.5569 6.46096 11.1893 6.29322 10.7846C6.12547 10.38 6.03913 9.94622 6.03913 9.50817C6.03913 9.07012 6.12547 8.63636 6.29322 8.2317C6.46096 7.82704 6.70683 7.45941 7.01675 7.14984C7.32632 6.83992 7.69395 6.59405 8.09861 6.4263C8.50327 6.25856 8.93703 6.17221 9.37508 6.17221C9.81313 6.17221 10.2469 6.25856 10.6515 6.4263C11.0562 6.59405 11.4238 6.83992 11.7334 7.14984L11.8334 7.24984C12.2262 7.63406 12.7251 7.89181 13.2658 7.98984C13.8064 8.08788 14.3641 8.02169 14.8667 7.79984H15.0001C15.493 7.58856 15.9134 7.23776 16.2096 6.79061C16.5057 6.34346 16.6646 5.81948 16.6667 5.28317V4.99984C16.6667 4.11578 17.0179 3.26794 17.6431 2.64281C18.2682 2.01769 19.116 1.6665 20.0001 1.6665C20.8841 1.6665 21.732 2.01769 22.3571 2.64281C22.9822 3.26794 23.3334 4.11578 23.3334 4.99984V5.14984C23.3356 5.68615 23.4945 6.21013 23.7906 6.65728C24.0867 7.10443 24.5071 7.45523 25.0001 7.6665C25.5028 7.88836 26.0604 7.95454 26.6011 7.85651C27.1417 7.75848 27.6406 7.50073 28.0334 7.1165L28.1334 7.0165C28.443 6.70658 28.8106 6.46072 29.2153 6.29297C29.6199 6.12522 30.0537 6.03888 30.4917 6.03888C30.9298 6.03888 31.3636 6.12522 31.7682 6.29297C32.1729 6.46072 32.5405 6.70658 32.8501 7.0165C33.16 7.32608 33.4059 7.69371 33.5736 8.09837C33.7414 8.50303 33.8277 8.93678 33.8277 9.37484C33.8277 9.81289 33.7414 10.2466 33.5736 10.6513C33.4059 11.056 33.16 11.4236 32.8501 11.7332L32.7501 11.8332C32.3658 12.226 32.1081 12.7249 32.0101 13.2655C31.912 13.8062 31.9782 14.3638 32.2001 14.8665V14.9998C32.4113 15.4928 32.7622 15.9132 33.2093 16.2093C33.6565 16.5054 34.1804 16.6644 34.7167 16.6665H35.0001C35.8841 16.6665 36.732 17.0177 37.3571 17.6428C37.9822 18.2679 38.3334 19.1158 38.3334 19.9998C38.3334 20.8839 37.9822 21.7317 37.3571 22.3569C36.732 22.982 35.8841 23.3332 35.0001 23.3332H34.8501C34.3138 23.3353 33.7898 23.4942 33.3426 23.7903C32.8955 24.0865 32.5447 24.5069 32.3334 24.9998Z" stroke="black" stroke-width="3" stroke-linecap="round" stroke-linejoin="round"/>
</g>
<defs>
<clipPath id="clip0_206_299">
<rect width="40" height="40" fill="white"/>
</clipPath>
</defs>
</svg>
